<svg width="811" height="701" version="1.1" xmlns="http://www.w3.org/2000/svg" desc="Created with imagetracer.js version 1.2.6" ><path fill="rgb(75,94,190)" stroke="rgb(75,94,190)" stroke-width="1" opacity="1" d="M 454.5 35 L 493.5 35 L 494.5 36 L 505.5 36 L 506.5 37 L 521.5 38 L 562.5 47 L 593.5 58 Q 661.4 87.1 707 138.5 Q 747.7 182.8 770 245.5 L 780 281.5 L 784 304.5 L 785 322.5 L 786 323.5 L 786 370.5 L 785 371.5 L 785 381.5 L 784 382.5 L 784 389.5 L 783 390.5 L 781 407.5 L 775 432.5 Q 767.3 459.3 756 482.5 Q 728.1 539.1 683.5 579 Q 640.5 618.5 580.5 641 L 558.5 648 L 521.5 656 L 506.5 657 L 505.5 658 L 494.5 658 L 493.5 659 L 455.5 659 L 454.5 658 L 442.5 658 L 441.5 657 L 427.5 656 L 393.5 649 Q 365.7 641.3 341.5 630 L 299.5 606 L 275.5 588 L 254.5 568 L 253 568 L 253 566 Q 250.3 567.1 251 564.5 Q 222.4 536.6 202 500.5 Q 189.3 478.2 180 452.5 L 173 430.5 L 166 397 L 170 397 L 170 398.5 L 176 426.5 L 185 454.5 Q 194 478.5 206 499.5 Q 230.9 542.6 266.5 575 Q 309 614.5 368.5 637 L 397.5 646 L 427.5 652 L 441.5 653 L 442.5 654 L 453.5 654 L 454.5 655 L 493.5 655 L 494.5 654 L 506.5 654 L 507.5 653 L 527.5 651 L 558.5 644 L 590.5 633 L 610.5 624 Q 661.1 598.6 698 559.5 Q 740.2 515.7 764 453.5 L 772 428.5 L 780 389.5 L 781 372.5 L 782 371.5 L 782 322.5 L 781 321.5 L 781 312.5 L 780 311.5 L 780 304.5 L 779 303.5 L 777 286.5 L 772 265.5 Q 764.7 239.3 754 216.5 Q 728 162 686.5 123 Q 640.8 78.7 574.5 55 L 542.5 46 L 514.5 41 L 495.5 40 L 494.5 39 L 454.5 39 L 453.5 40 L 442.5 40 L 441.5 41 L 427.5 42 L 397.5 48 L 371.5 56 L 342.5 68 Q 285.2 95.7 245 140.5 Q 216.9 171.9 197 211.5 Q 185.7 234.2 178 260.5 L 170 297 L 166 297 L 166 295.5 L 173 263.5 L 180 241.5 Q 189.3 215.8 202 193.5 Q 223.8 155.8 253.5 126 Q 290.8 88.3 341.5 64 Q 365.7 52.7 393.5 45 L 427.5 38 L 441.5 37 L 442.5 36 L 453.5 36 L 454.5 35 Z " /><path fill="rgb(75,94,190)" stroke="rgb(75,94,190)" stroke-width="1" opacity="1" d="M 575 306 L 596 306 L 596 382.5 L 596.5 383 L 603.5 383 Q 608 385 604.5 387 L 588.5 387 L 588 383.5 L 586.5 375 L 579.5 384 Q 574.7 388.7 564.5 388 Q 554.5 386 550 378.5 Q 543.7 370.8 546 354.5 Q 548.7 342.2 557.5 336 Q 563.7 331.2 576.5 333 Q 583.1 334.4 586.5 339 L 587 310.5 L 585.5 309 L 575 309 L 575 306 Z M 570 336 L 565 338 L 559 345 L 556 360 L 557 370 L 561 379 L 566 382 L 570 383 L 578 381 Q 585 376 587 365 Q 589 349 583 342 L 576 336 L 570 336 Z " /><path fill="rgb(75,94,190)" stroke="rgb(75,94,190)" stroke-width="1" opacity="1" d="M 56.5 309 Q 62.3 308.2 64 311.5 L 65 318.5 L 62.5 322 L 56.5 323 L 52 319.5 Q 50.8 312.3 54.5 310 L 56.5 309 Z " /><path fill="rgb(75,94,190)" stroke="rgb(75,94,190)" stroke-width="1" opacity="1" d="M 438.5 311 L 455.5 312 L 467.5 318 Q 466.9 313.4 469.5 312 Q 471.8 311.3 471 313.5 L 472 314.5 L 472 335 L 468 333.5 Q 465.3 323.3 457.5 318 Q 451.4 313.6 439.5 315 Q 430.4 316.9 426 323.5 L 421 333.5 L 419 351.5 L 422 368.5 Q 424.9 376.6 431.5 381 Q 437.4 385.7 449.5 384 Q 459.4 381.9 464 374.5 L 469.5 364 L 472 364.5 L 472 387 Q 468.2 388.5 469 385.5 L 467.5 381 L 454.5 387 L 439.5 388 Q 422.3 385.3 414 373.5 Q 408.9 367.1 407 357.5 L 407 341.5 Q 409.8 326.8 419.5 319 L 429.5 313 L 438.5 311 Z " /><path fill="rgb(75,94,190)" stroke="rgb(75,94,190)" stroke-width="1" opacity="1" d="M 112.5 333 Q 126.5 331.5 131 339.5 L 134 345.5 Q 132.5 351 135 352.5 L 135 383 Q 142.1 381.2 144 385.5 L 142.5 387 L 116 387 Q 113.7 380.6 121.5 383 L 124 382 L 125 379.5 L 125 347.5 L 120.5 340 L 112.5 338 L 103 343.5 L 99 352.5 L 99 383 Q 106.1 381.2 108 385.5 L 106.5 387 L 81.5 387 L 80 383 Q 87.1 384.8 89 380.5 L 89 337.5 L 88.5 337 L 80 337 L 80 334 L 97.5 334 L 98 336.5 L 99.5 344 L 107.5 335 L 112.5 333 Z " /><path fill="rgb(75,94,190)" stroke="rgb(75,94,190)" stroke-width="1" opacity="1" d="M 182.5 333 Q 197.2 330.8 201 339.5 L 203 342.5 L 205 351.5 L 205 383 Q 212.1 381.2 214 385.5 L 212.5 387 L 186 387 Q 183.7 380.6 191.5 383 L 194 382 L 195 379.5 L 195 347.5 L 190.5 340 L 182.5 338 L 174 342 L 169 353.5 L 169 383 Q 176.1 381.2 178 385.5 L 176.5 387 L 151.5 387 L 150 384.5 Q 151.3 381.8 156.5 383 L 159 380.5 L 160 376.5 L 160 338.5 L 158.5 337 L 150 337 L 150.5 334 L 167.5 334 L 169 335.5 L 169.5 345 Q 171.7 338.2 177.5 335 L 182.5 333 Z " /><path fill="rgb(75,94,190)" stroke="rgb(75,94,190)" stroke-width="1" opacity="1" d="M 242.5 333 L 258.5 334 Q 266.3 337.3 271 343.5 Q 276.9 351.1 275 366.5 Q 272.4 377.4 264.5 383 Q 257.7 388.7 244.5 388 Q 231.9 385.6 226 376.5 Q 219.7 368.8 222 352.5 Q 224.5 344 230.5 339 L 242.5 333 Z M 246 336 L 241 338 L 234 347 L 232 357 L 233 371 L 238 381 L 244 384 Q 253 386 258 382 L 263 374 L 264 362 L 265 361 L 264 351 L 261 343 L 253 336 L 246 336 Z " /><path fill="rgb(75,94,190)" stroke="rgb(75,94,190)" stroke-width="1" opacity="1" d="M 362.5 333 Q 385 331 392 344.5 L 396 355.5 L 396 364.5 Q 394 375 387.5 381 Q 380.8 388.8 365.5 388 Q 354.2 385.8 348 378.5 Q 341.2 370.8 342 355.5 Q 344.4 342.9 353.5 337 L 362.5 333 Z M 366 336 L 360 339 Q 354 344 353 353 Q 351 370 357 379 L 365 384 Q 373 386 377 383 L 381 379 L 385 368 Q 387 351 381 342 Q 377 335 366 336 Z " /><path fill="rgb(75,94,190)" stroke="rgb(75,94,190)" stroke-width="1" opacity="1" d="M 503.5 333 Q 523.6 331.4 531 342.5 L 536 354.5 L 536 365.5 Q 534 376.5 526.5 382 Q 519.8 388.8 505.5 388 Q 492.8 385.8 487 376.5 L 483 367.5 L 482 358.5 L 486 345.5 L 492.5 338 L 503.5 333 Z M 506 336 L 502 338 L 497 343 L 493 355 L 494 372 L 498 380 L 505 384 Q 514 386 519 382 Q 523 377 525 370 Q 527 352 522 343 Q 518 335 506 336 Z " /><path fill="rgb(75,94,190)" stroke="rgb(75,94,190)" stroke-width="1" opacity="1" d="M 632.5 333 Q 653 331 660 342.5 L 662 349.5 L 658.5 357 L 646.5 360 L 625.5 360 L 624 359.5 L 624 364.5 L 627 375.5 L 632.5 382 Q 636.9 385.1 645.5 384 Q 652.7 382.2 656 376.5 L 657.5 374 Q 661.3 372.8 660 376.5 L 652.5 385 L 643.5 388 L 635.5 388 Q 622.8 385.8 617 376.5 L 614 369.5 L 613 357.5 L 617 344.5 L 623.5 337 L 632.5 333 Z M 637 336 L 631 339 L 625 348 L 624 356 L 646 356 L 649 355 L 651 353 L 652 349 L 650 342 Q 647 335 637 336 Z " /><path fill="rgb(75,94,190)" stroke="rgb(75,94,190)" stroke-width="1" opacity="1" d="M 44 334 L 64 334 L 64 382.5 Q 64.3 383.8 70.5 383 L 73 384 L 72.5 387 L 45.5 387 L 44 384.5 L 45.5 383 Q 50.9 383.6 53 382 L 54 379.5 L 54 337 L 44.5 337 L 44 334 Z " /><path fill="rgb(75,94,190)" stroke="rgb(75,94,190)" stroke-width="1" opacity="1" d="M 280 334 L 304.5 334 L 305 337 L 296.5 337 L 296 338.5 L 311.5 378 L 327 337 L 318 337 L 318 334 L 336.5 334 L 337 335.5 L 330 339.5 L 311.5 387 Q 304.3 388.3 303 383.5 L 286 337 L 280 337 L 280 334 Z " /><path fill="rgb(255,255,255)" stroke="rgb(255,255,255)" stroke-width="1" opacity="1" d="M 0 0 L 811 0 L 811 701 L 0 701 L 0 0 Z M 455 35 L 454 36 L 443 36 L 442 37 L 428 38 L 394 45 Q 366 53 342 64 Q 291 88 254 126 Q 224 156 202 194 Q 189 216 180 242 L 173 264 L 166 296 L 166 297 L 170 297 L 178 261 Q 186 234 197 212 Q 217 172 245 141 Q 285 96 343 68 L 372 56 L 398 48 L 428 42 L 442 41 L 443 40 L 454 40 L 455 39 L 495 39 L 496 40 L 515 41 L 543 46 L 575 55 Q 641 79 687 123 Q 728 162 754 217 Q 765 239 772 266 L 777 287 L 779 304 L 780 305 L 780 312 L 781 313 L 781 322 L 782 323 L 782 372 L 781 373 L 780 390 L 772 429 L 764 454 Q 740 516 698 560 Q 661 599 611 624 L 591 633 L 559 644 L 528 651 L 508 653 L 507 654 L 495 654 L 494 655 L 455 655 L 454 654 L 443 654 L 442 653 L 428 652 L 398 646 L 369 637 Q 309 614 267 575 Q 231 543 206 500 Q 194 479 185 455 L 176 427 L 170 399 L 170 397 L 166 397 L 173 431 L 180 453 Q 189 478 202 501 Q 222 537 251 565 Q 250 567 253 566 L 253 568 L 255 568 L 276 588 L 300 606 L 342 630 Q 366 641 394 649 L 428 656 L 442 657 L 443 658 L 455 658 L 456 659 L 494 659 L 495 658 L 506 658 L 507 657 L 522 656 L 559 648 L 581 641 Q 640 618 684 579 Q 728 539 756 483 Q 767 459 775 433 L 781 408 L 783 391 L 784 390 L 784 383 L 785 382 L 785 372 L 786 371 L 786 324 L 785 323 L 784 305 L 780 282 L 770 246 Q 748 183 707 139 Q 661 87 594 58 L 563 47 L 522 38 L 507 37 L 506 36 L 495 36 L 494 35 L 455 35 Z M 575 306 L 575 309 L 586 309 L 587 311 L 587 339 Q 583 334 577 333 Q 564 331 558 336 Q 549 342 546 355 Q 544 371 550 379 Q 555 386 565 388 Q 575 389 580 384 L 587 375 L 588 384 L 589 387 L 605 387 Q 608 385 604 383 L 597 383 L 596 383 L 596 306 L 575 306 Z M 57 309 L 55 310 Q 51 312 52 320 L 57 323 L 63 322 L 65 319 L 64 312 Q 62 308 57 309 Z M 439 311 L 430 313 L 420 319 Q 410 327 407 342 L 407 358 Q 409 367 414 374 Q 422 385 440 388 L 455 387 L 468 381 L 469 386 Q 468 389 472 387 L 472 365 L 470 364 L 464 375 Q 459 382 450 384 Q 437 386 432 381 Q 425 377 422 369 L 419 352 L 421 334 L 426 324 Q 430 317 440 315 Q 451 314 458 318 Q 465 323 468 334 L 472 335 L 472 315 L 471 314 Q 472 311 470 312 Q 467 313 468 318 L 456 312 L 439 311 Z M 113 333 L 108 335 L 100 344 L 98 337 L 98 334 L 80 334 L 80 337 L 89 337 L 89 338 L 89 381 Q 87 385 80 383 L 82 387 L 107 387 L 108 386 Q 106 381 99 383 L 99 353 L 103 344 L 113 338 L 121 340 L 125 348 L 125 380 L 124 382 L 122 383 Q 114 381 116 387 L 143 387 L 144 386 Q 142 381 135 383 L 135 353 Q 133 351 134 346 L 131 340 Q 127 331 113 333 Z M 183 333 L 178 335 Q 172 338 170 345 L 169 336 L 168 334 L 151 334 L 150 337 L 159 337 L 160 339 L 160 377 L 159 381 L 157 383 Q 151 382 150 385 L 152 387 L 177 387 L 178 386 Q 176 381 169 383 L 169 354 L 174 342 L 183 338 L 191 340 L 195 348 L 195 380 L 194 382 L 192 383 Q 184 381 186 387 L 213 387 L 214 386 Q 212 381 205 383 L 205 352 L 203 343 L 201 340 Q 197 331 183 333 Z M 243 333 L 231 339 Q 225 344 222 353 Q 220 369 226 377 Q 232 386 245 388 Q 258 389 265 383 Q 272 377 275 367 Q 277 351 271 344 Q 266 337 259 334 L 243 333 Z M 363 333 L 354 337 Q 344 343 342 356 Q 341 371 348 379 Q 354 386 366 388 Q 381 389 388 381 Q 394 375 396 365 L 396 356 L 392 345 Q 385 331 363 333 Z M 504 333 L 493 338 L 486 346 L 482 359 L 483 368 L 487 377 Q 493 386 506 388 Q 520 389 527 382 Q 534 377 536 366 L 536 355 L 531 343 Q 524 331 504 333 Z M 633 333 L 624 337 L 617 345 L 613 358 L 614 370 L 617 377 Q 623 386 636 388 L 644 388 L 653 385 L 660 377 Q 661 373 658 374 L 656 377 Q 653 382 646 384 Q 637 385 633 382 L 627 376 L 624 365 L 624 360 L 626 360 L 647 360 L 659 357 L 662 350 L 660 343 Q 653 331 633 333 Z M 44 334 L 45 337 L 54 337 L 54 380 L 53 382 Q 51 384 46 383 L 44 385 L 46 387 L 73 387 L 73 384 L 71 383 Q 64 384 64 383 L 64 334 L 44 334 Z M 280 334 L 280 337 L 286 337 L 303 384 Q 304 388 312 387 L 330 340 L 337 336 L 337 334 L 318 334 L 318 337 L 327 337 L 312 378 L 296 339 L 297 337 L 305 337 L 305 334 L 280 334 Z " /><path fill="rgb(255,255,255)" stroke="rgb(255,255,255)" stroke-width="1" opacity="1" d="M 245.5 336 L 252.5 336 L 261 342.5 L 264 350.5 L 265 360.5 L 264 361.5 L 263 373.5 L 257.5 382 Q 253.2 385.7 243.5 384 L 238 381 L 233 370.5 L 232 356.5 L 234 346.5 L 240.5 338 L 245.5 336 Z " /><path fill="rgb(255,255,255)" stroke="rgb(255,255,255)" stroke-width="1" opacity="1" d="M 365.5 336 Q 377 335 381 341.5 Q 387 350.5 385 367.5 L 381 378.5 L 376.5 383 Q 372.7 385.7 364.5 384 L 357 378.5 Q 351 369.5 353 352.5 Q 354.4 343.9 359.5 339 L 365.5 336 Z " /><path fill="rgb(255,255,255)" stroke="rgb(255,255,255)" stroke-width="1" opacity="1" d="M 505.5 336 Q 518 335 522 342.5 Q 527.3 352.3 525 369.5 Q 523.3 377.3 518.5 382 Q 514.2 385.7 504.5 384 L 498 379.5 L 494 371.5 L 493 354.5 L 497 342.5 L 501.5 338 L 505.5 336 Z " /><path fill="rgb(255,255,255)" stroke="rgb(255,255,255)" stroke-width="1" opacity="1" d="M 569.5 336 L 575.5 336 L 583 341.5 Q 588.9 349.1 587 364.5 Q 585.3 375.8 577.5 381 L 569.5 383 L 565.5 382 L 561 378.5 L 557 369.5 L 556 359.5 L 559 344.5 L 564.5 338 L 569.5 336 Z " /><path fill="rgb(255,255,255)" stroke="rgb(255,255,255)" stroke-width="1" opacity="1" d="M 636.5 336 Q 647 335 650 341.5 L 652 348.5 L 651 352.5 L 648.5 355 L 645.5 356 L 624 356 L 625 347.5 L 630.5 339 L 636.5 336 Z " /></svg>