<svg width="1500" height="939" version="1.1" xmlns="http://www.w3.org/2000/svg" desc="Created with imagetracer.js version 1.2.6" ><path fill="rgb(255,255,255)" stroke="rgb(255,255,255)" stroke-width="1" opacity="0.8901960784313725" d="M 912.5 1 L 968.5 2 L 969.5 3 L 979.5 3 L 980.5 4 L 988.5 4 L 989.5 5 L 1015.5 8 Q 1065.9 17.6 1108.5 35 Q 1211.2 78.3 1280 155.5 Q 1342.2 222.8 1376 318.5 L 1389 364.5 L 1397 409.5 L 1398 427.5 L 1399 428.5 L 1399 440.5 L 1400 441.5 L 1400 497.5 L 1399 498.5 L 1399 510.5 L 1398 511.5 L 1397 529.5 L 1389 574.5 L 1376 620.5 L 1358 665.5 Q 1315.5 755.5 1245.5 818 Q 1178.8 879.3 1084.5 913 L 1051.5 923 L 1009.5 932 L 1003.5 932 L 988.5 935 L 980.5 935 L 979.5 936 L 969.5 936 L 968.5 937 L 912.5 938 L 911.5 937 L 895.5 937 L 894.5 936 L 867.5 934 L 824.5 926 L 776.5 912 L 741.5 898 Q 701.1 879.9 666.5 856 L 633.5 831 L 605.5 805 L 604 805 L 602.5 802 L 596 796.5 Q 551.8 751.2 520 693.5 Q 502.8 662.2 490 626.5 L 477 583.5 L 470 545 L 475.5 545 L 476 546.5 L 481 572.5 L 493 615.5 L 508 654.5 L 529 696.5 Q 566.9 762.6 621.5 812 Q 682.1 867.9 765.5 901 L 807.5 915 L 851.5 925 L 878.5 928 L 879.5 929 L 887.5 929 L 888.5 930 L 930.5 931 L 932.5 932 L 933.5 931 L 961.5 931 L 962.5 930 L 984.5 929 L 985.5 928 L 999.5 927 L 1032.5 921 Q 1077.3 910.8 1115.5 894 Q 1209.6 852.1 1274 780.5 Q 1333.4 716.4 1367 626.5 L 1380 584.5 L 1389 540.5 L 1391 517.5 L 1392 516.5 L 1392 506.5 L 1393 505.5 L 1393 490.5 L 1394 489.5 L 1394 449.5 L 1393 448.5 L 1393 433.5 L 1392 432.5 L 1390 405.5 L 1381 358.5 L 1367 312.5 L 1349 269.5 Q 1308 186 1242.5 127 Q 1181.8 71.2 1098.5 38 L 1056.5 24 L 1012.5 14 L 985.5 11 L 984.5 10 L 975.5 10 L 974.5 9 L 933.5 8 L 931.5 7 L 930.5 8 L 888.5 9 L 887.5 10 L 879.5 10 L 878.5 11 L 857.5 13 L 831.5 18 L 800.5 26 L 770.5 36 L 741.5 48 Q 651.3 89.8 589 159.5 Q 543.6 209.1 513 273.5 L 493 323.5 L 481 366.5 L 476 394 L 470 394 L 470 389.5 L 477 355.5 L 490 312.5 Q 502.8 276.8 520 245.5 Q 554.8 182.3 604.5 134 Q 662.4 76.9 741.5 41 L 776.5 27 L 824.5 13 L 867.5 5 L 894.5 3 L 895.5 2 L 911.5 2 L 912.5 1 Z " /><path fill="rgb(255,255,255)" stroke="rgb(255,255,255)" stroke-width="1" opacity="0.8901960784313725" d="M 1083 408 L 1115 408 L 1115 523.5 L 1115.5 524 L 1127.5 524 Q 1130 525.2 1129 529 L 1102.5 529 Q 1101.4 528.9 1102 523.5 L 1101 522.5 L 1100.5 511 Q 1097.7 519.2 1091.5 524 Q 1083.6 532.1 1066.5 531 Q 1053.6 528.4 1047 519.5 Q 1036.4 507.6 1039 482.5 Q 1042.6 462.6 1056.5 453 L 1068.5 448 L 1083.5 448 Q 1093.6 449.9 1099.5 456 L 1100 414 L 1083 414 L 1083 408 Z M 1077 453 L 1066 458 L 1058 470 L 1056 477 L 1056 487 L 1055 488 L 1056 501 L 1061 515 Q 1065 521 1074 523 L 1080 523 L 1089 519 Q 1095 514 1098 506 L 1101 492 Q 1102 473 1095 462 Q 1090 453 1077 453 Z " /><path fill="rgb(255,255,255)" stroke="rgb(255,255,255)" stroke-width="1" opacity="0.8901960784313725" d="M 307.5 412 Q 314.1 412.4 317 416.5 L 319 424.5 L 314.5 432 L 307.5 434 L 300 431 L 298 427.5 L 298 419.5 L 303.5 413 L 307.5 412 Z " /><path fill="rgb(255,255,255)" stroke="rgb(255,255,255)" stroke-width="1" opacity="0.8901960784313725" d="M 882.5 415 L 903.5 417 L 910.5 419 L 922 425 Q 920.3 418.9 923.5 417 L 928 416 L 928 450.5 L 923 451 Q 919.2 435.6 907.5 427 L 899.5 423 L 886.5 421 Q 884.8 423.8 878.5 422 L 867.5 427 L 859 435.5 Q 853.2 443.7 851 455.5 Q 852.2 460.2 850 461.5 L 850 484.5 L 852 495.5 L 856 506.5 L 867.5 520 L 880.5 525 L 891.5 525 L 904.5 521 L 914 513.5 L 919 506.5 L 924.5 494 Q 929 493.5 929 494.5 L 929 530 Q 924.3 531 923 527.5 L 923 522 L 920.5 522 Q 912.2 527.8 900.5 530 L 879.5 531 L 869.5 529 L 857.5 524 L 842 510.5 L 832 490.5 L 831 479.5 L 830 478.5 L 830 467.5 L 833 452.5 L 838 441.5 L 852.5 425 L 863.5 419 L 882.5 415 Z " /><path fill="rgb(255,255,255)" stroke="rgb(255,255,255)" stroke-width="1" opacity="0.8901960784313725" d="M 390.5 448 L 402.5 448 Q 411 450.5 416 456.5 L 421 465.5 L 422 476.5 L 423 477.5 L 423 524 L 434.5 524 L 436 525.5 L 435.5 529 L 394 529 L 394 524 L 397.5 524 Q 398.8 521.8 403.5 523 L 407 519.5 L 408 515.5 L 408 472.5 Q 406.5 463.5 400.5 459 Q 396.2 455.3 386.5 457 Q 378.4 459.9 374 466.5 L 371 472.5 L 369 481.5 L 369 524 L 380.5 524 L 382 525.5 L 381.5 529 L 341 529 L 341 524 L 343.5 524 Q 344.8 521.8 349.5 523 L 353 520.5 L 354 518.5 L 354 455 L 341 455 L 341 450 L 367.5 450 Q 368.5 450 368 454.5 L 369 455.5 L 369.5 465 Q 373.3 456.8 380.5 452 L 390.5 448 Z " /><path fill="rgb(255,255,255)" stroke="rgb(255,255,255)" stroke-width="1" opacity="0.8901960784313725" d="M 495.5 448 Q 505 446.5 510.5 449 L 522 457.5 L 525 462.5 L 528 475.5 L 528 524 L 539.5 524 L 541 525.5 L 540.5 529 L 499 529 L 499 524 L 502.5 524 Q 503.7 521.8 508.5 523 L 512 519.5 L 513 516.5 L 513 472.5 L 511 465.5 L 505.5 459 Q 501.2 455.3 491.5 457 Q 483.4 459.9 479 466.5 L 476 472.5 L 474 482.5 L 474 524 L 485.5 524 L 487 525.5 L 486.5 529 L 446 529 L 446 524 L 448.5 524 Q 450 521.5 455.5 523 L 458 520.5 L 460 514.5 L 460 455 L 446 455 L 446 450 L 472.5 450 L 473 451.5 L 474 452.5 L 474.5 466 Q 477.3 457.3 484.5 453 L 495.5 448 Z " /><path fill="rgb(255,255,255)" stroke="rgb(255,255,255)" stroke-width="1" opacity="0.8901960784313725" d="M 585.5 448 Q 599.8 446.2 608.5 450 Q 618.6 453.9 625 461.5 L 632 474.5 L 634 485.5 L 634 493.5 L 632 503.5 L 629 510.5 L 619.5 522 L 604.5 530 L 586.5 531 Q 570.8 527.8 562 517.5 Q 550.5 506 553 480.5 Q 556 465 566.5 457 Q 574 450.5 585.5 448 Z M 591 453 L 582 456 Q 575 460 572 469 L 569 484 L 570 503 Q 572 512 577 519 L 588 525 Q 599 527 605 523 L 613 514 L 617 499 L 617 480 Q 615 478 616 474 L 610 461 Q 605 452 591 453 Z " /><path fill="rgb(255,255,255)" stroke="rgb(255,255,255)" stroke-width="1" opacity="0.8901960784313725" d="M 766.5 448 L 781.5 448 L 786.5 449 L 795.5 453 L 804 459 L 811 469.5 L 814 479.5 L 814 488.5 L 815 489.5 L 812 505.5 L 804 519 L 788.5 529 L 780.5 531 L 767.5 531 Q 751 527.5 742 516.5 L 735 502.5 L 733 487.5 L 736 472.5 Q 740.4 462.4 748.5 456 Q 755.5 450 766.5 448 Z M 772 453 L 763 456 L 754 466 L 750 482 L 751 504 L 757 518 Q 761 523 768 525 Q 779 527 786 523 Q 792 519 795 511 L 798 497 L 797 475 Q 795 465 790 460 Q 785 452 772 453 Z " /><path fill="rgb(255,255,255)" stroke="rgb(255,255,255)" stroke-width="1" opacity="0.8901960784313725" d="M 977.5 448 Q 991.2 446.3 999.5 450 Q 1010.5 454 1017 462.5 L 1023 473.5 L 1025 483.5 L 1025 494.5 Q 1022.8 495.7 1024 500.5 L 1019 512.5 L 1009.5 523 L 995.5 530 L 978.5 531 Q 959.7 527.8 951 514.5 Q 942.1 503.4 944 481.5 Q 947.6 463.6 960.5 455 Q 967.1 449.6 977.5 448 Z M 982 453 L 972 457 Q 963 464 961 477 L 961 502 L 963 510 L 969 520 L 979 525 Q 993 527 999 521 L 1005 512 L 1008 500 L 1008 478 Q 1006 468 1002 462 Q 997 452 982 453 Z " /><path fill="rgb(255,255,255)" stroke="rgb(255,255,255)" stroke-width="1" opacity="0.8901960784313725" d="M 1170.5 448 Q 1198.7 445.3 1209 460.5 Q 1214.5 465.5 1213 477.5 L 1207.5 485 L 1203.5 487 L 1192.5 488 L 1191.5 489 L 1158.5 489 L 1157 488.5 Q 1156.7 510.8 1168.5 521 L 1178.5 525 L 1186.5 525 Q 1197.5 523 1203 515.5 L 1206 509 L 1212 510 Q 1209.7 519.9 1201.5 525 Q 1191.9 532.4 1173.5 531 Q 1155.5 528 1147 515.5 Q 1138.9 504.6 1140 484.5 L 1142 474.5 L 1146 465.5 L 1157.5 453 L 1170.5 448 Z M 1178 453 L 1168 457 L 1159 469 L 1157 482 L 1162 483 L 1187 483 L 1193 481 L 1197 477 L 1198 473 Q 1198 464 1194 460 Q 1189 453 1178 453 Z " /><path fill="rgb(255,255,255)" stroke="rgb(255,255,255)" stroke-width="1" opacity="0.8901960784313725" d="M 287 450 L 316 450 L 316 523.5 L 316.5 524 L 328.5 524 Q 331 525.2 330 529 L 287.5 529 L 287 524 L 296.5 523 L 300 520.5 L 302 515.5 L 302 455 L 287 455 L 287 450 Z " /><path fill="rgb(255,255,255)" stroke="rgb(255,255,255)" stroke-width="1" opacity="0.8901960784313725" d="M 641 450 L 677.5 450 L 678 455 L 665.5 455 L 665 456.5 L 687.5 516 L 711 455.5 L 697 455 L 697.5 450 L 726 450 Q 727 453.8 724.5 455 Q 717.3 453.8 716 458.5 L 689 530 Q 678 531.8 675 524.5 L 648.5 455 L 641 455 L 641 450 Z " /><path fill="rgb(0,0,0)" stroke="rgb(0,0,0)" stroke-width="1" opacity="0" d="M 0 0 L 1500 0 L 1500 939 L 0 939 L 0 0 Z M 913 1 L 912 2 L 896 2 L 895 3 L 868 5 L 825 13 L 777 27 L 742 41 Q 662 77 605 134 Q 555 182 520 246 Q 503 277 490 313 L 477 356 L 470 390 L 470 394 L 476 394 L 481 367 L 493 324 L 513 274 Q 544 209 589 160 Q 651 90 742 48 L 771 36 L 801 26 L 832 18 L 858 13 L 879 11 L 880 10 L 888 10 L 889 9 L 931 8 L 932 7 L 934 8 L 975 9 L 976 10 L 985 10 L 986 11 L 1013 14 L 1057 24 L 1099 38 Q 1182 71 1243 127 Q 1308 186 1349 270 L 1367 313 L 1381 359 L 1390 406 L 1392 433 L 1393 434 L 1393 449 L 1394 450 L 1394 490 L 1393 491 L 1393 506 L 1392 507 L 1392 517 L 1391 518 L 1389 541 L 1380 585 L 1367 627 Q 1333 716 1274 781 Q 1210 852 1116 894 Q 1077 911 1033 921 L 1000 927 L 986 928 L 985 929 L 963 930 L 962 931 L 934 931 L 933 932 L 931 931 L 889 930 L 888 929 L 880 929 L 879 928 L 852 925 L 808 915 L 766 901 Q 682 868 622 812 Q 567 763 529 697 L 508 655 L 493 616 L 481 573 L 476 547 L 476 545 L 470 545 L 477 584 L 490 627 Q 503 662 520 694 Q 552 751 596 797 L 603 802 L 604 805 L 606 805 L 634 831 L 667 856 Q 701 880 742 898 L 777 912 L 825 926 L 868 934 L 895 936 L 896 937 L 912 937 L 913 938 L 969 937 L 970 936 L 980 936 L 981 935 L 989 935 L 1004 932 L 1010 932 L 1052 923 L 1085 913 Q 1179 879 1246 818 Q 1316 756 1358 666 L 1376 621 L 1389 575 L 1397 530 L 1398 512 L 1399 511 L 1399 499 L 1400 498 L 1400 442 L 1399 441 L 1399 429 L 1398 428 L 1397 410 L 1389 365 L 1376 319 Q 1342 223 1280 156 Q 1211 78 1109 35 Q 1066 18 1016 8 L 990 5 L 989 4 L 981 4 L 980 3 L 970 3 L 969 2 L 913 1 Z M 1083 408 L 1083 414 L 1100 414 L 1100 456 Q 1094 450 1084 448 L 1069 448 L 1057 453 Q 1043 463 1039 483 Q 1036 508 1047 520 Q 1054 528 1067 531 Q 1084 532 1092 524 Q 1098 519 1101 511 L 1101 523 L 1102 524 Q 1101 529 1103 529 L 1129 529 Q 1130 525 1128 524 L 1116 524 L 1115 524 L 1115 408 L 1083 408 Z M 308 412 L 304 413 L 298 420 L 298 428 L 300 431 L 308 434 L 315 432 L 319 425 L 317 417 Q 314 412 308 412 Z M 883 415 L 864 419 L 853 425 L 838 442 L 833 453 L 830 468 L 830 479 L 831 480 L 832 491 L 842 511 L 858 524 L 870 529 L 880 531 L 901 530 Q 912 528 921 522 L 923 522 L 923 528 Q 924 531 929 530 L 929 495 Q 929 493 925 494 L 919 507 L 914 514 L 905 521 L 892 525 L 881 525 L 868 520 L 856 507 L 852 496 L 850 485 L 850 462 Q 852 460 851 456 Q 853 444 859 436 L 868 427 L 879 422 Q 885 424 887 421 L 900 423 L 908 427 Q 919 436 923 451 L 928 451 L 928 416 L 924 417 Q 920 419 922 425 L 911 419 L 904 417 L 883 415 Z M 391 448 L 381 452 Q 373 457 370 465 L 369 456 L 368 455 Q 368 450 368 450 L 341 450 L 341 455 L 354 455 L 354 519 L 353 521 L 350 523 Q 345 522 344 524 L 341 524 L 341 529 L 382 529 L 382 526 L 381 524 L 369 524 L 369 482 L 371 473 L 374 467 Q 378 460 387 457 Q 396 455 401 459 Q 406 463 408 473 L 408 516 L 407 520 L 404 523 Q 399 522 398 524 L 394 524 L 394 529 L 436 529 L 436 526 L 435 524 L 423 524 L 423 478 L 422 477 L 421 466 L 416 457 Q 411 451 403 448 L 391 448 Z M 496 448 L 485 453 Q 477 457 475 466 L 474 453 L 473 452 L 473 450 L 446 450 L 446 455 L 460 455 L 460 515 L 458 521 L 456 523 Q 450 522 449 524 L 446 524 L 446 529 L 487 529 L 487 526 L 486 524 L 474 524 L 474 483 L 476 473 L 479 467 Q 483 460 492 457 Q 501 455 506 459 L 511 466 L 513 473 L 513 517 L 512 520 L 509 523 Q 504 522 503 524 L 499 524 L 499 529 L 541 529 L 541 526 L 540 524 L 528 524 L 528 476 L 525 463 L 522 458 L 511 449 Q 505 447 496 448 Z M 586 448 Q 574 450 567 457 Q 556 465 553 481 Q 551 506 562 518 Q 571 528 587 531 L 605 530 L 620 522 L 629 511 L 632 504 L 634 494 L 634 486 L 632 475 L 625 462 Q 619 454 609 450 Q 600 446 586 448 Z M 767 448 Q 756 450 749 456 Q 740 462 736 473 L 733 488 L 735 503 L 742 517 Q 751 528 768 531 L 781 531 L 789 529 L 804 519 L 812 506 L 815 490 L 814 489 L 814 480 L 811 470 L 804 459 L 796 453 L 787 449 L 782 448 L 767 448 Z M 978 448 Q 967 450 961 455 Q 948 464 944 482 Q 942 503 951 515 Q 960 528 979 531 L 996 530 L 1010 523 L 1019 513 L 1024 501 Q 1023 496 1025 495 L 1025 484 L 1023 474 L 1017 463 Q 1010 454 1000 450 Q 991 446 978 448 Z M 1171 448 L 1158 453 L 1146 466 L 1142 475 L 1140 485 Q 1139 505 1147 516 Q 1155 528 1174 531 Q 1192 532 1202 525 Q 1210 520 1212 510 L 1206 509 L 1203 516 Q 1198 523 1187 525 L 1179 525 L 1169 521 Q 1157 511 1157 489 L 1159 489 L 1192 489 L 1193 488 L 1204 487 L 1208 485 L 1213 478 Q 1215 466 1209 461 Q 1199 445 1171 448 Z M 287 450 L 287 455 L 302 455 L 302 516 L 300 521 L 297 523 L 287 524 L 288 529 L 330 529 Q 331 525 329 524 L 317 524 L 316 524 L 316 450 L 287 450 Z M 641 450 L 641 455 L 649 455 L 675 525 Q 678 532 689 530 L 716 459 Q 717 454 725 455 Q 727 454 726 450 L 698 450 L 697 455 L 711 456 L 688 516 L 665 457 L 666 455 L 678 455 L 678 450 L 641 450 Z " /><path fill="rgb(0,0,0)" stroke="rgb(0,0,0)" stroke-width="1" opacity="0" d="M 590.5 453 Q 604.5 452.5 610 460.5 L 616 473.5 Q 614.8 478.3 617 479.5 L 617 498.5 L 613 513.5 L 604.5 523 Q 598.7 526.7 587.5 525 L 577 518.5 Q 571.9 512.1 570 502.5 L 569 483.5 L 572 468.5 Q 574.9 460.4 581.5 456 L 590.5 453 Z " /><path fill="rgb(0,0,0)" stroke="rgb(0,0,0)" stroke-width="1" opacity="0" d="M 771.5 453 Q 784.5 452.5 790 459.5 Q 795.3 465.2 797 474.5 L 798 496.5 L 795 510.5 Q 792.1 518.6 785.5 523 Q 779.4 526.9 767.5 525 Q 760.8 522.8 757 517.5 L 751 503.5 L 750 481.5 L 754 465.5 L 762.5 456 L 771.5 453 Z " /><path fill="rgb(0,0,0)" stroke="rgb(0,0,0)" stroke-width="1" opacity="0" d="M 981.5 453 Q 996.5 452.5 1002 461.5 Q 1006.5 468 1008 477.5 L 1008 499.5 L 1005 511.5 L 998.5 521 Q 992.9 527.4 978.5 525 L 969 520 L 963 509.5 L 961 501.5 L 961 476.5 Q 963 463.5 971.5 457 L 981.5 453 Z " /><path fill="rgb(0,0,0)" stroke="rgb(0,0,0)" stroke-width="1" opacity="0" d="M 1076.5 453 Q 1090.4 452.6 1095 461.5 Q 1102 472.5 1101 491.5 L 1098 505.5 Q 1094.9 513.9 1088.5 519 L 1079.5 523 L 1073.5 523 Q 1065.2 520.9 1061 514.5 L 1056 500.5 L 1055 487.5 L 1056 486.5 L 1056 476.5 L 1058 469.5 L 1065.5 458 L 1076.5 453 Z " /><path fill="rgb(0,0,0)" stroke="rgb(0,0,0)" stroke-width="1" opacity="0" d="M 1177.5 453 Q 1189.5 452.5 1194 459.5 Q 1197.8 464.2 1198 472.5 L 1197 476.5 L 1192.5 481 L 1186.5 483 L 1161.5 483 L 1157 482 L 1159 468.5 L 1167.5 457 L 1177.5 453 Z " /></svg>